<?xml version="1.0" encoding="utf-8"?>
<!-- Generator: Adobe Illustrator 19.0.0, SVG Export Plug-In . SVG Version: 6.00 Build 0)  -->
<svg version="1.1" id="Layer_1" xmlns="http://www.w3.org/2000/svg" xmlns:xlink="http://www.w3.org/1999/xlink" x="0px" y="0px"
	 viewBox="0 0 265.6 295.5" style="enable-background:new 0 0 265.6 295.5;" xml:space="preserve">
	<style type="text/css">
		.st0{fill:none;stroke:#333333;stroke-width:4;stroke-linecap:round;stroke-miterlimit:10;}
	</style>
	<path id="XMLID_1_" class="st0" d="M62.3,73.4c-14,22-21.3,36.7-16.7,47.3s16.7,19.3,16.7,19.3s-48.7,24-48,34
		c0.7,10,35.3,19.3,35.3,19.3l-1.3,24.7c0,0-22,35.3,14,33.3s61.3-52.7,66.7-29.3c5.3,23.3,0,45.3,0,45.3s73.3-22,67.3-44
		s-10.6-50.5,8.7-67.3c18-15.8,65.3-90,9.3-119.3S105,32.1,62.3,73.4z"/>
</svg>
