<?xml version="1.0" encoding="utf-8"?>
<!-- Generator: Adobe Illustrator 19.0.0, SVG Export Plug-In . SVG Version: 6.00 Build 0)  -->
<svg version="1.1" id="Layer_1" xmlns="http://www.w3.org/2000/svg" xmlns:xlink="http://www.w3.org/1999/xlink" x="0px" y="0px"
	 viewBox="0 0 250.5 288" style="enable-background:new 0 0 250.5 288;" xml:space="preserve">
<style type="text/css">
	.st0{fill:none;stroke:#333333;stroke-width:4;stroke-linecap:round;stroke-miterlimit:10;}
</style>
<path id="XMLID_3_" class="st0" d="M58.9,69.1c-5.8,16.9-19,42.7-11.3,53.7s-34,52.1-29.2,63.2c4.7,11.1,29.2,0,29.2,0
	s-10.6,19.5-9.1,23.2c1.5,3.7,7.8,6.3,9.1,12.1c1.3,5.8-22.4,37.4,18.2,30.5s59-10,55.8,6.8l60.6-14.2c0,0-6.8-41.6,2.1-59.5
	c8.6-17.1,49.9-64.5,54.2-87.4c5.3-27.9-16.3-79-98.5-73.2C74.1,29.1,62.5,59.3,58.9,69.1z"/>
</svg>
