<?xml version="1.0" encoding="utf-8"?>
<!-- Generator: Adobe Illustrator 19.0.0, SVG Export Plug-In . SVG Version: 6.00 Build 0)  -->
<svg version="1.1" id="Layer_1" xmlns="http://www.w3.org/2000/svg" xmlns:xlink="http://www.w3.org/1999/xlink" x="0px" y="0px"
	 viewBox="0 0 146 198" style="enable-background:new 0 0 146 198;" xml:space="preserve">
<style type="text/css">
	.st0{display:none;opacity:0.3;}
	.st1{display:inline;}
	.st2{fill:#1E1E1E;}
	.st3{fill:#303030;}
</style>
<g id="XMLID_1181_" class="st0">
	<g class="st1">
		<path class="st2" d="M-10.9,116.8c1.8,13.3-7.8,28.6,1,40.7c0.6,0.8,1.9,0,1.3-0.8c-8.6-11.8,1-27.2-0.8-40.3
			C-9.6,115.4-11.1,115.8-10.9,116.8L-10.9,116.8z"/>
	</g>
</g>
<g id="XMLID_1175_" class="st0">
	<g class="st1">
		<path class="st2" d="M57.4,102c16.9,4.3,34-5.1,50.3-7.8c7.9-1.3,17.7-1.1,24.4,3.8c8.4,6.2,6.3,18.3,2.4,26.6
			c-5,10.7-15,18.9-25.5,24c-5.7,2.8-11.9,4.4-18.2,4.9c-6.7,0.5-13.1-1.1-19.8-0.9c-10.7,0.3-14.4,9.6-23.1,13.7
			c-5.8,2.7-12.3,4.2-18.6,5.3c-11.9,2.2-39.5,5.3-37.5-14.1c0.1-1-1.4-1-1.5,0c-1.6,15.5,15.4,17.7,27.1,17
			c7.9-0.5,15.7-1.9,23.3-4.2c2.8-0.8,5.6-1.7,8.2-3c5-2.4,8.1-7.2,12.7-10.3c7.3-4.9,15.2-2.2,23.3-2c6.3,0.1,12.6-0.6,18.6-2.7
			c10.8-3.7,21.3-11,28.1-20.2c5.2-7.1,9.4-17.5,7.3-26.4c-1.8-7.8-8.9-11.7-16.2-13.1c-22.1-4-43,13.4-65,7.8
			C56.8,100.3,56.4,101.7,57.4,102L57.4,102z"/>
	</g>
</g>
<g id="XMLID_1157_" class="st0">
	<g class="st1">
		<path class="st2" d="M-9.5,157.8c10.5,4.2,22.2,3.2,33,1.4c12.7-2.1,25.1-5.7,37.6-8.5c14.9-3.3,29.7-6.8,43.9-12.5
			c12-4.8,24.2-10.6,32.7-20.5c0.6-0.7-0.4-1.8-1.1-1.1c-8.9,10.4-22.1,16.3-34.6,21.1c-13.4,5.1-27.4,8.5-41.3,11.5
			c-11.3,2.5-22.4,5.6-33.8,7.8c-11.7,2.2-24.7,3.8-36.1-0.7C-10,156-10.4,157.4-9.5,157.8L-9.5,157.8z"/>
	</g>
</g>
<g id="XMLID_1247_" class="st0">
	<g class="st1">
		<path class="st2" d="M118.8,94.4c-1.6,5.3-2.6,10.9-4.9,16c-2.6,5.7-6.9,9.8-12.2,13c-11.5,7-25.3,11.6-38.1,15.7
			c-11.8,3.7-25.6,7.4-38.1,4.9c-12.9-2.6-23.9-9.3-37.4-8.6c-1,0.1-1,1.6,0,1.5c15-0.8,27.3,8.1,41.8,9.1
			c12.9,0.9,26.2-2.8,38.3-6.9c12.8-4.4,27.4-8.8,38.2-17.1c8.9-6.9,10.8-17,13.8-27.2C120.5,93.9,119.1,93.5,118.8,94.4L118.8,94.4
			z"/>
	</g>
</g>
<g id="XMLID_872_" class="st0">
	<g class="st1">
		<path class="st2" d="M60.5,102.2c-1,2.9-2,5.7-3,8.6c-0.3,0.9,1.1,1.3,1.4,0.4c1.1-2.8,2.1-5.7,3-8.6
			C62.3,101.7,60.8,101.3,60.5,102.2L60.5,102.2z"/>
	</g>
</g>
<g id="XMLID_866_" class="st0">
	<g class="st1">
		<path class="st2" d="M65.3,102.6c-0.8,3-1.7,5.9-2.7,8.8c-0.3,0.9,1.1,1.3,1.4,0.4c1-2.9,1.9-5.8,2.7-8.8
			C67,102.1,65.6,101.7,65.3,102.6L65.3,102.6z"/>
	</g>
</g>
<g id="XMLID_858_" class="st0">
	<g class="st1">
		<path class="st2" d="M69.9,103.1c0.4,2.9-0.7,5.7-0.6,8.6c0,1,1.5,1,1.5,0c-0.1-3,1-5.9,0.5-9C71.2,101.8,69.7,102.2,69.9,103.1
			L69.9,103.1z"/>
	</g>
</g>
<g id="XMLID_1169_" class="st0">
	<g class="st1">
		<path class="st2" d="M76.5,102c-0.1,2.8-0.1,5.6-0.2,8.4c0,1,1.5,1,1.5,0c0.1-2.8,0.1-5.6,0.2-8.4C78,101,76.5,101,76.5,102
			L76.5,102z"/>
	</g>
</g>
<g id="XMLID_852_" class="st0">
	<g class="st1">
		<path class="st2" d="M80.7,101.2c0.6,2.8,1.1,5.7,1.3,8.6c0.1,1,1.6,1,1.5,0c-0.2-3-0.7-6-1.3-9C81.9,99.8,80.5,100.2,80.7,101.2
			L80.7,101.2z"/>
	</g>
</g>
<g>
	<g>
		<g>
			<path class="st3" d="M56.1,81.4c4.2,7.6,11.1,13.2,15.8,20.5c5.3,8.3,6.8,18.3,6.8,28c0,9.1-1.2,18.2-2.2,27.3
				c-1,9.6-0.2,22.7-7.1,30.3c-1,1.1,0.6,2.7,1.6,1.6c6-6.6,6.1-16,7-24.5c1.2-11,2.7-22,2.9-33.1c0.2-9-0.8-18.3-4.7-26.6
				C71.7,95.6,63,89.3,58,80.2C57.3,79,55.4,80.1,56.1,81.4L56.1,81.4z"/>
		</g>
	</g>
	<g>
		<g>
			<path class="st3" d="M61.3,78.9c3.3,5.2,7.3,9.9,12.4,13.6c3.3,2.4,8.7,6.2,12.9,3.6c4.4-2.8,5.2-9.2,7.9-13.3
				c3-4.6,6.7-9.6,6.4-15.3c-0.1-1.4-2.3-1.4-2.3,0c0.3,4.8-2.8,9.5-5.5,13.4c-2.2,3.2-3.2,6.9-5.2,10.3c-6.4,10.6-21-7.6-24.7-13.3
				C62.4,76.6,60.5,77.7,61.3,78.9L61.3,78.9z"/>
		</g>
	</g>
	<g>
		<g>
			<path class="st3" d="M103.7,68.4c0.9,11.9-9.8,22-12.3,33.3c-2.3,10.7,1,22.8,2.2,33.5c0.6,5.5,1,11.1,0.6,16.6
				c-0.4,5.7-2.4,11.3-2.5,17c-0.3,8.6,3.7,16.6,10.3,21.9c1.1,0.9,2.7-0.7,1.6-1.6c-9.4-7.6-10.5-17.7-8.4-28.9
				c2-10.3,1.3-20.3-0.1-30.6c-1.5-11.4-4-23.1,0.9-34c3.7-8.2,10.5-17.8,9.8-27.2C105.8,67,103.6,67,103.7,68.4L103.7,68.4z"/>
		</g>
	</g>
	<g>
		<g>
			<path class="st3" d="M76.7,114.4c-4.8,5.5-12.4-1.8-16.8-4.5c-4.7-2.8-9.6-4.4-15.1-4.5c-6.4-0.1-12.8,1.8-18.9-0.7
				c-6.8-2.8-10.6-9.3-11-16.5c-0.2-2.9,0.2-5.8,1.2-8.5c0.9-2.5,2.4-4.3,2.8-6.9c0.7-4.8-0.5-9.8-0.7-14.7
				c-0.3-7.9,2.6-14.2,10.4-17.1c3.8-1.4,8-1.9,11.2-4.5c8.6-7.2,9-22.2,21.6-24.8c11.2-2.3,19.3,5.7,27.5,11.8
				c6.7,5,15.4,2.3,23.2,2.3c6.1,0,11.5,1.3,14.4,7.2c3.1,6.4,3.8,13.7,3.5,20.7c-0.3,6.4-1.8,12.4-2.7,18.6
				c-1.1,7.4,3.7,13.7,3.7,20.9c0,7.4-8.2,14.6-14.3,17.6c-7.8,3.8-16,0.4-24.1,1.7c-1.4,0.2-0.8,2.4,0.6,2.2
				c7.7-1.2,15.3,1.8,22.8-1.1c5.8-2.3,11.4-7.2,14.7-12.5c3.5-5.7,2.3-10.8,0.4-16.9c-1.5-4.6-2.2-8.6-1.3-13.5
				c0.6-3,1.2-6,1.6-9.1c1.4-10.2,2.4-28.1-7.3-35c-4.1-2.9-9.7-3-14.5-2.8c-5.1,0.2-12.1,2-16.9-0.2c-4.2-1.9-7.6-5.9-11.4-8.5
				c-4.3-3-9.2-5.3-14.5-5.7C52.4,8,48.1,20.3,41.7,30.4c-4.1,6.4-9.5,6.3-15.7,9.2c-5.2,2.4-9,6.8-9.9,12.5c-1,6.3,1,12.5,0.7,18.7
				c-0.1,3.2-1.8,5.4-2.9,8.3c-1.1,2.9-1.5,6.1-1.3,9.1c0.3,6.1,2.9,12.3,7.9,16c5.9,4.4,12.4,4.2,19.4,3.6c5.2-0.4,10.5-0.2,15.3,2
				c3.5,1.6,6.6,4,9.8,6c4.5,2.7,9.4,4.6,13.3,0.1C79.2,114.9,77.6,113.3,76.7,114.4L76.7,114.4z"/>
		</g>
	</g>
</g>
</svg>
