<?xml version="1.0" encoding="utf-8"?>
<!-- Generator: Adobe Illustrator 19.0.0, SVG Export Plug-In . SVG Version: 6.00 Build 0)  -->
<svg version="1.1" id="Layer_1" xmlns="http://www.w3.org/2000/svg" xmlns:xlink="http://www.w3.org/1999/xlink" x="0px" y="0px"
	 viewBox="0 0 168 104" style="enable-background:new 0 0 168 104;" xml:space="preserve">
<style type="text/css">
	.st0{display:none;opacity:0.3;}
	.st1{display:inline;}
	.st2{fill:#1E1E1E;}
	.st3{fill:none;stroke:#303030;stroke-width:2;stroke-linecap:round;stroke-miterlimit:10;}
</style>
<g id="XMLID_1181_" class="st0">
	<g class="st1">
		<path class="st2" d="M180.1,58.8c1.8,13.3-7.8,28.6,1,40.7c0.6,0.8,1.9,0,1.3-0.8c-8.6-11.8,1-27.2-0.8-40.3
			C181.4,57.4,179.9,57.8,180.1,58.8L180.1,58.8z"/>
	</g>
</g>
<g id="XMLID_1175_" class="st0">
	<g class="st1">
		<path class="st2" d="M248.4,44c16.9,4.3,34-5.1,50.3-7.8c7.9-1.3,17.7-1.1,24.4,3.8c8.4,6.2,6.3,18.3,2.4,26.6
			c-5,10.7-15,18.9-25.5,24c-5.7,2.8-11.9,4.4-18.2,4.9c-6.7,0.5-13.1-1.1-19.8-0.9c-10.7,0.3-14.4,9.6-23.1,13.7
			c-5.8,2.7-12.3,4.2-18.6,5.3c-11.9,2.2-39.5,5.3-37.5-14.1c0.1-1-1.4-1-1.5,0c-1.6,15.5,15.4,17.7,27.1,17
			c7.9-0.5,15.7-1.9,23.3-4.2c2.8-0.8,5.6-1.7,8.2-3c5-2.4,8.1-7.2,12.7-10.3c7.3-4.9,15.2-2.2,23.3-2c6.3,0.1,12.6-0.6,18.6-2.7
			c10.8-3.7,21.3-11,28.1-20.2c5.2-7.1,9.4-17.5,7.3-26.4c-1.8-7.8-8.9-11.7-16.2-13.1c-22.1-4-43,13.4-65,7.8
			C247.8,42.3,247.4,43.7,248.4,44L248.4,44z"/>
	</g>
</g>
<g id="XMLID_1157_" class="st0">
	<g class="st1">
		<path class="st2" d="M181.5,99.8c10.5,4.2,22.2,3.2,33,1.4c12.7-2.1,25.1-5.7,37.6-8.5c14.9-3.3,29.7-6.8,43.9-12.5
			c12-4.8,24.2-10.6,32.7-20.5c0.6-0.7-0.4-1.8-1.1-1.1c-8.9,10.4-22.1,16.3-34.6,21.1c-13.4,5.1-27.4,8.5-41.3,11.5
			c-11.3,2.5-22.4,5.6-33.8,7.8c-11.7,2.2-24.7,3.8-36.1-0.7C181,98,180.6,99.4,181.5,99.8L181.5,99.8z"/>
	</g>
</g>
<g id="XMLID_1247_" class="st0">
	<g class="st1">
		<path class="st2" d="M309.8,36.4c-1.6,5.3-2.6,10.9-4.9,16c-2.6,5.7-6.9,9.8-12.2,13c-11.5,7-25.3,11.6-38.1,15.7
			c-11.8,3.7-25.6,7.4-38.1,4.9c-12.9-2.6-23.9-9.3-37.4-8.6c-1,0.1-1,1.6,0,1.5c15-0.8,27.3,8.1,41.8,9.1
			c12.9,0.9,26.2-2.8,38.3-6.9c12.8-4.4,27.4-8.8,38.2-17.1c8.9-6.9,10.8-17,13.8-27.2C311.5,35.9,310.1,35.5,309.8,36.4L309.8,36.4
			z"/>
	</g>
</g>
<g id="XMLID_872_" class="st0">
	<g class="st1">
		<path class="st2" d="M251.5,44.2c-1,2.9-2,5.7-3,8.6c-0.3,0.9,1.1,1.3,1.4,0.4c1.1-2.8,2.1-5.7,3-8.6
			C253.3,43.7,251.8,43.3,251.5,44.2L251.5,44.2z"/>
	</g>
</g>
<g id="XMLID_866_" class="st0">
	<g class="st1">
		<path class="st2" d="M256.3,44.6c-0.8,3-1.7,5.9-2.7,8.8c-0.3,0.9,1.1,1.3,1.4,0.4c1-2.9,1.9-5.8,2.7-8.8
			C258,44.1,256.6,43.7,256.3,44.6L256.3,44.6z"/>
	</g>
</g>
<g id="XMLID_858_" class="st0">
	<g class="st1">
		<path class="st2" d="M260.9,45.1c0.4,2.9-0.7,5.7-0.6,8.6c0,1,1.5,1,1.5,0c-0.1-3,1-5.9,0.5-9C262.2,43.8,260.7,44.2,260.9,45.1
			L260.9,45.1z"/>
	</g>
</g>
<g id="XMLID_1169_" class="st0">
	<g class="st1">
		<path class="st2" d="M267.5,44c-0.1,2.8-0.1,5.6-0.2,8.4c0,1,1.5,1,1.5,0c0.1-2.8,0.1-5.6,0.2-8.4C269,43,267.5,43,267.5,44
			L267.5,44z"/>
	</g>
</g>
<g id="XMLID_852_" class="st0">
	<g class="st1">
		<path class="st2" d="M271.7,43.2c0.6,2.8,1.1,5.7,1.3,8.6c0.1,1,1.6,1,1.5,0c-0.2-3-0.7-6-1.3-9C272.9,41.8,271.5,42.2,271.7,43.2
			L271.7,43.2z"/>
	</g>
</g>
<g>
	<path class="st3" d="M11.6,37.6c0,0-6.2,33.6,0.2,40.5c6.4,6.9,99.9-3.2,148-39.9c0,0,1.8-8.5,0.3-13.3c-1.2-4.2-6.5-16.7-37.3-8.9
		c-26.5,8.9-41.3,8.2-51.3,2.3c0,0-5-3.6-5.5,3.7c-0.4,6.2-25.2,27.6-51.6,14.7C13.9,36.4,12.1,34.9,11.6,37.6z"/>
	<path class="st3" d="M12.9,78.8c0,0-3.4,21.6,35.9,14.9c20.6-3.9,25.6-8.2,27.7-10.3c2.1-2,9.8-10.6,16.5-9.2
		c12.1,3.3,30.2-2.7,39.7-6.1c10-3.6,30.3-18.9,27.1-30"/>
	<path class="st3" d="M9.2,57c0,0,9.9-0.3,16.4,1.8c6.6,2.1,25.9,12.2,53.6,4s44.9-15.1,53-24.1s10.8-20.6,9.3-24.9"/>
	<line class="st3" x1="103.5" y1="21.6" x2="104.4" y2="30.5"/>
	<line class="st3" x1="99.2" y1="22" x2="99" y2="31.4"/>
	<line class="st3" x1="94.5" y1="23" x2="93.6" y2="31.8"/>
	<line class="st3" x1="90.5" y1="23.6" x2="88.2" y2="31.8"/>
	<line class="st3" x1="86.3" y1="23.5" x2="83" y2="31.4"/>
	<line class="st3" x1="81.5" y1="22.7" x2="77.6" y2="29.8"/>
</g>
</svg>
