<?xml version="1.0" encoding="utf-8"?>
<!-- Generator: Adobe Illustrator 19.0.0, SVG Export Plug-In . SVG Version: 6.00 Build 0)  -->
<svg version="1.1" id="Layer_1" xmlns="http://www.w3.org/2000/svg" xmlns:xlink="http://www.w3.org/1999/xlink" x="0px" y="0px"
	 viewBox="0 0 640 480" style="enable-background:new 0 0 640 480;" xml:space="preserve">
<style type="text/css">
	.st0{fill:#333533;}
</style>
<g id="XMLID_1857_">
	<path id="XMLID_1874_" class="st0" d="M172.7,217.1c-3.5,13.4-5.6,23.7-6.3,30.8c-0.6,7.1,0,12.3,1.8,15.4c0.5,0.9,1.3,1.4,2.3,1.4
		c0.4,0,0.9-0.1,1.4-0.4c0.7-0.4,1.1-0.9,1.3-1.6c0.2-0.7,0.1-1.4-0.3-2.1c-1.6-2.8-1.8-8.4-0.5-16.8c1.2-8.4,4.4-21.5,9.4-39.3
		c0.2-0.6,0.2-1.2,0-1.7c-0.2-0.6-0.6-1-1.1-1.4c-1.2-0.7-2.4-0.6-3.3,0.4c-4.6,4.3-10.4,13.3-17.4,26.9c-2,3.9-4.4,8.8-7,14.6
		c0.3-3.8,0.4-6.4,0.5-7.8c0.6-9.1,0.8-15.3,0.7-18.5c-0.2-6.9-1.3-11.6-3.6-14.1c-1.3-1.5-2.9-2.2-4.9-2.3h-0.2c-1,0-1.8,0-2.3,0.1
		c-3.1,0.2-6,1.4-8.9,3.7c-3,2.4-4.9,5.1-5.7,8.1c-1.3,4.4,0.1,8,4,10.8c0.6,0.5,1.3,0.6,2.1,0.5c0.8-0.1,1.4-0.5,1.8-1.1
		c0.4-0.6,0.6-1.3,0.4-2.1c-0.1-0.8-0.5-1.4-1.1-1.8c-1.8-1.3-2.5-2.9-1.9-4.8c0.5-1.8,1.7-3.6,3.8-5.2c1.9-1.6,3.9-2.5,5.8-2.6
		c1.1,0,1.8,0,2,0.1l-0.5,2c-0.9,2.2-1.8,4.1-2.5,5.8c-0.3,0.5-0.6,1.2-1,2.3c-1.2,2.6-2.5,5.7-4,9.3c-4.6,10.8-7.9,18.5-10,23.1
		c-1.5,3-3.1,6.1-4.9,9.3c-1.6,2.6-2.6,4-3,4c-0.7,0.4-1.2,0.9-1.4,1.6c-0.3,0.7-0.3,1.4,0,2.1c0.5,1.1,1.4,1.6,2.6,1.6
		c0.4,0,0.8-0.1,1.1-0.2c1.6-0.8,3.4-2.7,5.3-5.8c1.6-2.7,3.3-6,5.2-9.9c2.6-5.4,6-13.3,10.3-23.6c1-2.5,2.3-5.5,3.9-9.2
		c0.1-0.1,0.4-0.9,1-2.3l1.1-2.3c0.1,1.2,0.2,2.3,0.2,3.2c0.1,3.1-0.1,9.1-0.7,18c-0.5,5.4-0.7,10-0.7,13.8c0,3.8,0.4,6.5,1.2,8.1
		c0.5,1.1,1.4,1.7,2.7,1.6c1.2-0.1,2-0.8,2.4-1.9c1.7-5.5,5.4-14,11.2-25.4C167.4,226.2,170.1,221.4,172.7,217.1z"/>
	<path id="XMLID_1871_" class="st0" d="M292.4,244.7c5.4-2.3,10.4-6.5,14.8-12.5c3.4-4.8,5.9-9.6,7.3-14.4c1.1-3.2,1.7-6.1,1.6-8.9
		c-0.1-3.2-1.2-5.2-3.2-6.1c-1.6-0.8-3.3-0.7-5.2,0.4c-1.4,0.9-2.7,2.3-4,4.2c-3,4.1-6,9.7-9.3,16.6c-3.1,6.5-5.7,12.7-7.6,18.7
		c-2.5,7.6-2.6,13.1-0.2,16.3c1.6,2.2,4.1,3.3,7.6,3.3h0.1c2,0,4-0.5,5.9-1.5c1.7-0.9,3.1-2,4.4-3.3c0.1,0.2,0.1,0.3,0.2,0.5
		c0.8,1.6,2.1,2.7,3.8,3.6c1.3,0.5,2.6,0.8,4,0.8c3,0,5.8-1.1,8.5-3.3c2.7-2.4,5.1-6,7.2-10.7c0.3-0.7,0.2-1.4,0-2.1
		c-0.3-0.7-0.8-1.2-1.4-1.4c-0.7-0.3-1.4-0.3-2.1,0c-0.7,0.3-1.2,0.8-1.6,1.4c-3,7.2-6.5,10.7-10.5,10.7c-1.5,0-2.5-0.4-3-1.3
		c-0.2-0.3-0.3-0.7-0.3-1.1c-0.1-0.4,0-1.2,0.2-2.3c0.1-0.8,0.3-1.7,0.7-2.7c0-0.1,0.1-0.1,0.1-0.2c0,0,0,0,0,0
		c0.1-0.3,0.2-0.5,0.3-0.8c0.5-1.4,1.4-3.2,2.7-5.4c1.2-2.2,2.8-4.6,4.7-7.3c0.4-0.6,0.6-1.3,0.5-2.1c-0.1-0.8-0.5-1.3-1.1-1.7
		c-0.6-0.5-1.3-0.6-2.1-0.5c-0.8,0.1-1.4,0.5-1.8,1.1c-4,5.6-6.7,10.5-8.2,14.5c-0.1,0.3-0.4,0.7-0.6,1.3c-0.4,0.9-0.8,1.5-0.9,1.9
		c-0.2,0.3-0.5,0.8-0.9,1.5c-0.4,0.6-0.9,1.2-1.3,1.7c-0.5,0.5-1,0.9-1.6,1.3c-1.8,1.3-3.7,2-5.6,2h-0.1c-1.6,0-2.6-0.3-3.1-1
		c-1.2-1.7-0.9-5.3,0.9-10.9C292,244.8,292.2,244.8,292.4,244.7z M308.1,210.5c0.8-1.1,1.6-1.9,2.3-2.4c0.1,0.4,0.2,1,0.2,1.8
		c0,1.7-0.4,3.7-1.2,6.1c-1.3,3.9-3.2,7.9-5.8,11.8c-2.6,3.9-5.5,7-8.9,9.4C299.1,225.8,303.6,216.9,308.1,210.5z"/>
	<path id="XMLID_1870_" class="st0" d="M318.9,225.1c0.5,0.3,1,0.5,1.6,0.5c1,0,1.8-0.4,2.3-1.2l0.1-0.2l0.3-0.5
		c0.4-0.6,0.6-1.3,0.4-2.1c-0.1-0.8-0.5-1.3-1.1-1.7c-0.6-0.4-1.3-0.6-2.1-0.4c-0.8,0.1-1.4,0.5-1.8,1.1l-0.2,0.4l-0.2,0.2
		c-0.3,0.5-0.5,1.1-0.5,1.6C317.7,223.8,318.1,224.6,318.9,225.1z"/>
	<path id="XMLID_1869_" class="st0" d="M454.6,219.4c-0.6-0.4-1.3-0.6-2.1-0.4c-0.8,0.1-1.4,0.5-1.8,1.1l-0.2,0.4l-0.2,0.2
		c-0.3,0.5-0.5,1.1-0.5,1.6c0,1,0.4,1.7,1.2,2.3c0.5,0.3,1,0.5,1.6,0.5c1,0,1.8-0.4,2.3-1.2l0.1-0.2l0.3-0.5
		c0.4-0.6,0.6-1.3,0.4-2.1C455.6,220.4,455.2,219.8,454.6,219.4z"/>
	<path id="XMLID_1863_" class="st0" d="M407.3,280c-0.1,0.1-12.7,9.6-37.2,15.1c-22.5,5.1-59.6,7.7-109.5-8.4
		c4.7-5.4,8.7-11.4,12.1-17.8c0.3-0.5,0.6-1,0.9-1.6c0.7-1.4,1.4-2.8,2.1-4.3c1.6-3.8,2.9-7.8,4.4-12.2c0.2-0.8,0.5-1.8,0.8-2.8
		l0.6-0.9c2.4-3,3.1-5.4,2.1-7.1c-0.4-0.6-0.8-1-1.3-1.2c0.7,0.1,1.3-0.1,1.9-0.5c0.6-0.4,0.9-0.9,1.1-1.7c0.6-3.2-0.4-5.6-2.8-7.1
		c-1.8-1.1-4-1.5-6.6-1.1c-2.6,0.4-5.1,1.4-7.5,3.1c-2.9,2.1-5.7,4.9-8.4,8.5c-1.3,1.7-2.3,3.3-3.1,4.8c0,0.1-0.1,0.1-0.1,0.2
		c-1.6,2.4-3,4-4.2,4.6c-0.4,0.2-0.6,0.3-0.9,0.3c-1-1-1.7-3.5-2.3-7.6c0.2-0.5,0.4-1,0.7-1.7c0.2-0.6,0.4-1,0.4-1.1
		c1.1-3.2,0.8-5.5-0.9-7c-1.1-1-2.3-1.2-3.6-0.4c-1.2,0.6-2,2-2.3,4c-0.2,1.5-0.2,3.2,0,5.4c-1.3,3-2.6,5.5-3.9,7.5
		c-3,4.7-5.9,7.3-8.7,7.6c-0.5-1.3-0.5-3.6-0.2-6.8c0.2-2.7,0.7-5.4,1.5-8.1c0.3-0.6,0.6-1.6,1-3c0.2-0.7,0.1-1.4-0.2-2.1
		c-0.4-0.7-0.9-1.1-1.6-1.3c-0.7-0.2-1.4-0.2-2.1,0.2c-0.7,0.3-1.2,0.8-1.4,1.6l-0.9,3c-1.8,4.9-4.1,8.8-6.9,11.9
		c-1.3,1.5-2.6,2.7-4,3.6l-2,1c-0.6-0.2-0.9-0.5-1.1-0.8c-0.7-1.2-0.8-3.1-0.3-5.8c0.6-3.2,2.1-6.7,4.5-10.4
		c0.4-0.6,0.5-1.3,0.4-2.1c-0.2-0.8-0.5-1.3-1.2-1.7c-0.7-0.4-1.4-0.5-2.1-0.4c-0.8,0.2-1.3,0.6-1.7,1.2c-1.8,2.8-3.2,5.5-4.2,8.1
		c-0.1,0.1-0.1,0.1-0.2,0.2c-1.5,1.9-3.1,3.2-5.1,3.7c0.2-0.3,0.3-0.6,0.5-1.2c1.6-3.6,2-6.9,1.5-10c-0.7-3.6-2.4-5.9-5.2-6.8
		c-3-0.9-6.1,0-9.3,2.9c-1.4,1.2-2.4,2.6-3.1,4.4c-0.8-0.1-1.5,0.2-2,0.8c-3.5,3.3-5.8,7.1-6.9,11.4c-1.2,4.6-0.8,8.1,1.4,10.5
		c1.3,1.5,3,2.2,5.1,2.2c0.3,0,0.9-0.1,1.9-0.2c2.6-0.6,5.5-2.1,8.6-4.7c1.4-1.2,2.6-2.3,3.5-3.3c2.3,0.3,4.4,0,6.4-0.8
		c0.4-0.2,0.8-0.3,1.2-0.5c0,2.1,0.4,3.8,1.2,5.2c1.3,2.5,3.3,3.7,6,3.7c3-0.1,6.3-2.2,10-6.3c0.2-0.2,0.5-0.6,0.9-1.1
		c0.2,2.3,0.7,4.1,1.6,5.4c0.9,1.3,2.1,2,3.7,2c5,0,9.6-3.4,14-10.2c0.6-1.1,1-1.7,1-1.8c0.9,2.3,2.1,3.9,3.6,4.6
		c1.7,1,3.6,0.9,5.9-0.2c0,0,0,0,0,0c0.3,1.2,0.9,2.3,1.8,3.2c1.7,1.9,3.8,2.7,6.3,2.6c2.8-0.2,5.8-1.5,9.2-4
		c-1.2,3.1-2.5,6.2-4.1,9.3c-0.3,0.5-0.5,0.9-0.8,1.4l0.1,0c-3.4,6.4-7.6,12.4-12.6,17.8c-23.1-7.4-42.9-11.1-59-11.1
		c-0.1,0-0.2,0-0.3,0c-18.2,0.1-26.6,4.9-30.5,9c-3.8,4-4.9,9.1-3,14c3.5,9.1,16.3,15.8,32.5,16.9c2.1,0.2,4.3,0.2,6.4,0.2
		c18.9,0,36.3-6.2,50.5-18c1.8-1.5,3.5-3.1,5.2-4.7c23.1,7.6,45.5,12,66.6,13.1c17,0.9,33.2-0.4,48.2-3.8
		c25.7-5.8,38.8-15.7,39.3-16.1c1.2-0.9,1.4-2.6,0.5-3.8C410.2,279.3,408.5,279.1,407.3,280z M193,253.1c-0.3,0.3-0.5,0.4-0.7,0.5
		c-2.5,2-4.6,3.1-6.2,3.5c-0.7,0.1-1.3,0-1.8-0.2c-0.8-1-0.9-2.9-0.2-5.4c0.7-2.3,1.8-4.5,3.3-6.5c0.9,3.2,3,5.7,6.1,7.6
		C193.5,252.6,193.3,252.8,193,253.1z M197.3,248.2c-2.4-1.2-3.9-3-4.5-5.1c-0.6-2,0-3.9,1.8-5.5c1.3-1.2,2.5-1.8,3.3-1.8
		c0.2,0,0.4,0,0.5,0.1c0.8,0.3,1.3,1.1,1.6,2.6C200.4,241.5,199.5,244.7,197.3,248.2z M262.9,254.9c-0.8,0.1-1.5-0.2-2-0.8
		c-0.5-0.6-0.7-1.4-0.6-2.3c0.2-2.3,1.5-5,4-8.2c2.5-3.2,4.9-5.7,7.3-7.4c2-1.5,4-2.3,6.1-2.3c0.8,0,1.4,0.1,1.8,0.4
		c0.4,0.1,0.5,0.5,0.3,1.3c-0.3,1.3,0.2,2.3,1.5,3c-0.4,0-0.6,0-0.8,0.1c-2.1,0.3-3.6,2.2-4.4,5.7l-0.2,1.2
		c-2.2,2.6-4.5,4.8-6.9,6.6C266.5,253.9,264.5,254.9,262.9,254.9z M194.9,308.2c-16-1.1-25.5-7.6-27.8-13.5c-1.1-3-0.5-5.8,1.8-8.3
		c4-4.2,12.8-7.3,26.8-7.3c13.4,0,31.5,2.8,54.8,10C236.7,301.9,217.9,309.9,194.9,308.2z"/>
	<path id="XMLID_1858_" class="st0" d="M492.7,235.2c-0.4-1-0.5-1.6-0.5-1.7c0.7-2.5,0.4-4.3-0.8-5.3c-1.1-1-2.3-1.1-3.6-0.2
		c-1.1,0.7-1.6,2.1-1.5,4c0,0,0,0.1,0,0.1c-3.8,6.3-12.9,19.5-19.7,23.1c-2.6,1.4-4.7,1.7-5.7,0.8c-0.7-0.6-1.2-1.8-1.3-3.7
		c0-2,0.5-4.8,1.6-8.1c0.2,0,0.3-0.1,0.5-0.2c5.4-2.3,10.4-6.5,14.8-12.5c3.4-4.8,5.9-9.6,7.3-14.4c1.1-3.2,1.7-6.1,1.6-8.9
		c-0.1-3.2-1.2-5.2-3.2-6.1c-1.6-0.8-3.3-0.7-5.2,0.4c-1.4,0.9-2.7,2.3-4,4.2c-3,4.1-6,9.7-9.3,16.6c-3.1,6.5-5.7,12.7-7.6,18.7
		c-0.3,0.9-0.6,1.8-0.8,2.7l0,0c-0.1,0.5-0.3,0.9-0.4,1.4c-2.9,6.6-6.3,9.9-10.2,9.9c-1.5,0-2.5-0.4-3-1.3c-0.2-0.3-0.3-0.7-0.3-1.1
		c-0.1-0.4,0-1.2,0.2-2.3c0.2-1.1,0.5-2.3,1-3.7c0.5-1.4,1.4-3.2,2.7-5.4c1.2-2.2,2.8-4.6,4.7-7.3c0.4-0.6,0.6-1.3,0.5-2.1
		c-0.1-0.8-0.5-1.3-1.1-1.7c-0.6-0.5-1.3-0.6-2.1-0.5c-0.8,0.1-1.4,0.5-1.8,1.1c-4.2,5.9-7,10.9-8.4,15.1
		c-3.7,6.8-7.5,10.2-11.1,10.2c-0.5,0-0.8,0-0.9-0.1c-0.1-0.3,0-1.1,0.3-2.4c0.1-0.3,0.3-0.8,0.5-1.4c0.2-0.6,0.4-1,0.4-1.1
		c0.8-0.9,1.4-1.6,1.6-1.9c2.3-3,3.1-5.3,2.4-6.9c-0.4-0.6-0.9-1.1-1.6-1.4c0.7,0.1,1.3-0.1,1.8-0.5c0.5-0.4,0.9-1,1-1.6
		c0.6-3.2-0.3-5.5-2.7-7.1c-1.8-1.1-4-1.5-6.6-1.1c-2.6,0.4-5.1,1.4-7.5,3.1c-2.9,2.1-5.7,4.9-8.4,8.5c-1,1.4-1.9,2.8-2.7,4.1
		c-1.6,2.4-3.5,4.4-5.6,6.2c-2.5,2-4.8,3.1-6.8,3.2h-0.2c-0.6,0.1-0.9,0-1-0.1c-0.4-1.1,0.3-3.4,1.9-6.7c2-4.2,2.8-7.4,2.4-9.7
		c-0.5-2.9-2.7-5.5-6.7-7.9c0.2-0.9,0.3-1.6,0.3-1.9c0-0.6,0-1.2-0.1-1.7c-0.1-0.3-0.1-0.5-0.3-0.8c-0.3-0.7-0.9-1.2-1.7-1.6
		c-0.9-0.4-1.8-0.4-2.8,0c-1,0.4-1.7,1.1-2.3,2.1c-0.6,1.2-0.8,2.4-0.5,3.6c0.3,1,0.6,1.7,1,2.2c-2.7,9.9-8.8,24.8-18.8,24.8
		c0,0,0,0,0,0c-0.8,0-2.9-0.3-4.5-2.6c-2-2.8-4.2-10.2,2.4-28.3c3.8-10.4,10.7-20.7,19.8-29.2c46.7,15.2,72.7,10.9,81.6,1.6
		c3.5-3.6,4.5-8.2,2.8-12.6c-3.1-8-14-13.5-28.5-14.5c-22.5-1.6-42.3,6.7-57.1,19.4c-0.1,0-0.2-0.1-0.4-0.1
		c-23.5-7.9-46.4-12.8-68-14.5c-17.3-1.3-33.8-0.6-49.1,2.1c-26.2,4.7-39.6,13.7-40.2,14c-1.2,0.8-1.6,2.5-0.7,3.8
		c0.8,1.2,2.5,1.6,3.8,0.7c0.1-0.1,13.2-8.8,38.4-13.2c22.9-4.1,60.8-5.3,111.6,11.4c-8.7,8.7-15.3,18.9-19.1,29.2
		c-5.7,15.5-6.3,26.7-1.8,33.2c2.2,3.1,5.4,4.9,8.9,4.9c0,0,0,0,0.1,0c13.3,0,20.3-16.4,23.3-26.7c0.1,0.1,0.2,0.2,0.3,0.2
		c0,0,0.1,0.1,0.1,0.1c1.5,1.1,2.3,2.2,2.6,3.2c0.2,1.1-0.4,3.2-1.9,6.3c-1.3,2.7-2.2,5.1-2.4,7.1c-0.3,2.1,0,3.8,0.9,5.1
		c1.1,1.7,2.9,2.5,5.3,2.5h0.7h0.1c3.3-0.3,6.6-1.7,9.9-4.4c0.3,1.2,0.9,2.2,1.8,3.2c1.6,1.7,3.5,2.6,5.9,2.6h0.4
		c3-0.2,6.4-1.8,10.3-4.8c0.2,0.5,0.4,1,0.6,1.6c1.1,1.7,2.9,2.5,5.5,2.5c3.3,0,6.2-1.2,8.9-3.7c0.7-0.6,1.3-1.3,1.9-2.1
		c0,0.1,0.1,0.2,0.1,0.3c0.8,1.6,2.1,2.7,3.8,3.6c1.3,0.5,2.6,0.8,4,0.8c3,0,5.8-1.1,8.5-3.3c0.6-0.5,1.1-1.1,1.7-1.7
		c0.3,0.7,0.6,1.3,1,1.8c0.1,0.1,0.2,0.2,0.2,0.3c0.4,0.6,0.9,1.1,1.4,1.5c1.1,0.9,2.7,1.7,4.9,1.7c1.8,0,4-0.5,6.7-2
		c7-3.7,14.8-14.2,19.1-20.9c0.1,0.4,0.3,0.8,0.4,1.2c0,0,0,0,0,0c0.1,0.2,0.1,0.4,0.2,0.6c0.9,2.6,1.5,4.9,1.9,7
		c0.7,4.1,0.5,7-0.6,8.6c-0.7,1.1-2.1,1.7-4.4,1.7c-1.2,0-2.3-0.1-3-0.4c-0.8-0.3-1.3-0.6-1.5-0.8c-0.2-0.3-0.4-0.6-0.7-1.1
		c-0.4-0.7-0.9-1.1-1.6-1.4c-0.7-0.2-1.4-0.2-2.1,0.2c-0.7,0.4-1.1,0.9-1.4,1.6c-0.2,0.7-0.2,1.4,0.2,2.1c1.9,3.5,5.2,5.3,10.1,5.3
		c4.1,0,7.1-1.4,8.9-4.1C498,255,497.3,246.8,492.7,235.2z M477.4,210.1c0.8-1.1,1.6-1.9,2.3-2.4c0.1,0.4,0.2,1,0.2,1.8
		c0,1.7-0.4,3.7-1.2,6.1c-1.3,3.9-3.2,7.9-5.8,11.8c-2.6,3.9-5.5,7-8.9,9.4C468.4,225.3,472.9,216.4,477.4,210.1z M435.7,178.9
		c13.9,1,22,6.3,23.9,11.1c0.9,2.5,0.4,4.8-1.7,6.9c-4,4.2-12.8,6.6-24.2,6.7c-13.2,0.1-29.9-2.9-48.6-8.7
		C398.5,184.2,416,177.5,435.7,178.9z M422.7,247l-0.5,1c-0.1,0.2-0.1,0.4-0.3,0.7c-0.1,0.3-0.2,0.5-0.3,0.7
		c-5.1,5.7-9.2,8.6-12.3,8.7c-0.8,0.1-1.5-0.2-2-0.8c-0.5-0.6-0.7-1.3-0.6-2.3c0.2-2.3,1.5-5,4-8.2c2.5-3.2,4.9-5.7,7.3-7.4
		c2.1-1.5,4.1-2.3,6.1-2.3c0.7,0,1.3,0.1,1.7,0.4c0.4,0.1,0.5,0.5,0.3,1.3c-0.3,1.5,0.3,2.5,1.7,3.1h-0.2c-1.1,0-2.2,0.6-3.2,1.9
		C423.9,244.5,423.3,245.6,422.7,247z"/>
</g>
</svg>
